<svg width="240" height="240" viewBox="0 0 240 240" fill="none" xmlns="http://www.w3.org/2000/svg">
<circle cx="120" cy="120" r="120" fill="#343434"/>
<path opacity="0.1" d="M198.437 79.8332C198.397 79.9918 198.397 80.1504 198.437 80.309C198.437 80.309 198.952 83.679 198.357 85.1856L173.935 148.741C172.19 153.419 174.529 158.613 179.208 160.397C183.886 162.181 189.08 159.882 190.943 155.243L215.366 91.6879C215.842 90.4588 218.578 88.0403 218.578 88.0403C218.697 87.9213 218.816 87.8024 218.895 87.6834V87.6438C218.895 87.6041 218.934 87.6041 218.934 87.5645C219.569 85.9389 215.485 82.8464 209.855 80.6658C204.225 78.4852 199.111 78.0491 198.476 79.7143C198.476 79.7143 198.437 79.7539 198.437 79.8332Z" fill="black"/>
<path d="M197.724 79.2766C197.684 79.4352 197.684 79.5937 197.724 79.7523C197.724 79.7523 198.239 83.1224 197.645 84.629L173.222 148.184C171.477 152.863 173.816 158.056 178.495 159.841C183.173 161.625 188.367 159.325 190.23 154.686L214.653 91.1312C215.129 89.9021 217.865 87.4836 217.865 87.4836C217.984 87.3647 218.103 87.2457 218.182 87.1268V87.0872C218.182 87.0475 218.222 87.0475 218.222 87.0079C218.856 85.3823 214.772 82.2898 209.142 80.1092C203.512 77.9285 198.398 77.4924 197.764 79.1576C197.764 79.1973 197.764 79.2369 197.724 79.2766Z" fill="url(#paint0_linear_1102_23)"/>
<path d="M205.416 108.023L187.773 153.856C186.464 157.147 182.698 158.852 179.328 157.543C175.958 156.235 174.174 152.389 175.403 149.098L186.663 119.799C186.663 119.799 188.05 117.539 190.826 115.913C193.601 114.288 195.861 114.645 198.914 113.297C202.006 111.949 205.416 108.023 205.416 108.023Z" fill="url(#paint1_linear_1102_23)"/>
<path d="M213.974 85.6845C214.325 84.7674 211.796 82.9374 208.324 81.5969C204.852 80.2565 201.753 79.9133 201.402 80.8303C201.05 81.7474 203.58 83.5774 207.052 84.9178C210.523 86.2583 213.623 86.6015 213.974 85.6845Z" fill="#333333"/>
<path opacity="0.3" d="M197.56 79.748C197.56 79.748 198.072 83.1086 197.481 84.611L173.218 147.987C171.485 152.652 173.809 157.831 178.457 159.611C179.244 159.927 180.072 160.125 180.899 160.164C177.787 157.792 176.448 153.601 177.866 149.727L201.656 87.6157C201.656 87.6157 198.387 84.5714 197.56 79.748Z" fill="white"/>
<g opacity="0.5">
<path d="M189.76 121.337C190.151 121.337 190.469 121.019 190.469 120.626C190.469 120.233 190.151 119.914 189.76 119.914C189.368 119.914 189.051 120.233 189.051 120.626C189.051 121.019 189.368 121.337 189.76 121.337Z" fill="white"/>
<path d="M194.368 126.793C194.955 126.793 195.431 126.315 195.431 125.726C195.431 125.136 194.955 124.658 194.368 124.658C193.781 124.658 193.305 125.136 193.305 125.726C193.305 126.315 193.781 126.793 194.368 126.793Z" fill="white"/>
<path d="M187.315 133.831C188.425 133.831 189.324 132.928 189.324 131.815C189.324 130.701 188.425 129.799 187.315 129.799C186.206 129.799 185.307 130.701 185.307 131.815C185.307 132.928 186.206 133.831 187.315 133.831Z" fill="white"/>
<path d="M184.087 136.598C184.674 136.598 185.15 136.12 185.15 135.53C185.15 134.941 184.674 134.463 184.087 134.463C183.5 134.463 183.023 134.941 183.023 135.53C183.023 136.12 183.5 136.598 184.087 136.598Z" fill="white"/>
<path d="M188.299 144.148C188.69 144.148 189.008 143.829 189.008 143.436C189.008 143.043 188.69 142.725 188.299 142.725C187.907 142.725 187.59 143.043 187.59 143.436C187.59 143.829 187.907 144.148 188.299 144.148Z" fill="white"/>
</g>
<path opacity="0.1" d="M63.8356 116.714C64.9061 117.584 66.8488 117.07 68.1572 115.647C69.5448 114.145 69.7431 112.207 68.6726 111.338C67.6021 110.468 65.6594 110.982 64.351 112.484C62.9633 113.986 62.7255 115.884 63.8356 116.714ZM60.6241 119.521C60.3466 119.521 59.8312 120.035 60.2673 120.233C60.862 120.431 61.1396 120.945 61.1396 121.656C60.6241 124.622 56.9369 127.982 55.5096 129.129C55.1528 129.485 55.6682 130.275 56.025 129.998C56.818 129.366 58.4832 128.061 59.8312 126.322C57.6109 131.264 53.2497 137.668 51.5845 139.922C45.0823 148.897 35.2101 157.16 28.4304 157.16C22.9987 157.16 18.3996 153.483 17.4084 148.106C17.3291 147.513 16.5361 147.394 16.6947 148.185C17.9238 155.578 23.633 158.464 30.5317 158.464C38.1044 158.464 46.9854 153.008 51.9017 147.394C59.8312 138.341 64.9457 127.903 63.5977 122.012C63.0426 119.838 61.4964 119.482 60.6241 119.521ZM109.351 139.25C111.452 138.736 113.157 137.589 113.157 135.771C113.157 135.573 112.8 135.573 112.8 135.771C112.8 136.838 111.571 137.748 110.183 137.945C106.932 138.459 100.509 134.664 97.4963 130.75C100.747 131.975 107.369 130.196 110.501 127.943C113.395 125.847 114.545 123.554 114.743 121.696C115.1 118.612 111.73 116.794 107.012 118.612C103.998 119.838 100.391 122.487 96.624 127.468C100.589 120.945 108.399 110.27 116.051 103.47C125.368 95.2069 130.761 96.7883 122.395 105.565C118.946 109.163 112.443 113.828 107.963 115.845C106.576 116.438 107.25 117.228 108.241 116.793C112.998 114.698 119.342 110.389 123.188 106.791C134.527 95.9185 125.051 87.7346 112.523 99.2396C103.998 107.068 98.4478 115.252 93.6108 125.887C91.9456 127.903 90.7166 129.564 89.21 130.829C89.0117 130.987 88.8928 131.145 88.7738 131.303C84.6109 134.861 78.069 139.685 73.9853 139.724C71.0911 139.803 69.862 137.629 70.3774 134.822C71.1704 130.433 75.7298 125.254 79.6153 123.475C84.6505 121.182 87.6241 125.65 81.0029 129.208C78.4655 130.512 75.4523 131.224 74.2232 131.224C72.7959 131.224 72.9149 131.817 74.1439 131.857C76.1659 131.936 79.417 131.066 81.558 130.078C88.3377 126.836 88.7738 120.787 81.3994 120.589C73.3906 120.312 63.7959 127.112 63.8752 135.692C63.9545 139.566 67.047 141.662 71.2893 141.662C78.3862 141.583 84.6902 136.206 89.884 131.461C90.6373 130.829 91.3509 130.157 92.0646 129.445C90.2408 134.031 89.3289 138.301 89.765 141.464C90.0426 143.757 91.3509 144.824 92.3818 145.694C92.58 145.852 93.0161 145.694 92.7386 145.259C91.232 143.48 91.6681 138.143 93.7298 132.964C95.4743 136.443 102.254 140.831 109.351 139.25ZM100.827 124.266C109.113 116.873 112.364 123.475 107.091 127.508C104.355 129.603 98.9236 131.185 97.2188 130.157L96.8619 129.959C96.6637 129.603 96.4258 129.247 96.2672 128.891C97.6549 127.191 99.2408 125.689 100.827 124.266ZM146.897 115.845C150.227 116.2 148.84 112.168 145.47 113.196C143.963 113.631 142.496 116.517 141.426 119.008C138.095 123.95 132.545 130.71 128.659 134.268C125.21 137.234 122.038 138.024 125.924 132.489C127.509 130.275 129.531 127.903 130.681 125.531C133.417 119.561 127.589 116.912 122.871 120.51C120.135 122.605 116.448 126.915 113.554 129.287C112.761 129.919 112.959 130.868 113.752 130.236C116.051 128.378 120.095 124.108 123.584 121.617C126.479 119.403 127.628 120.826 125.963 122.684C123.664 125.333 119.62 129.959 118.589 132.885C117.161 137.273 118.866 139.21 121.761 139.21C125.725 139.21 131.633 133.043 135.597 128.14C136.906 126.48 138.333 124.543 139.562 122.684C136.113 129.366 132.505 136.127 128.025 142.255C121.681 150.873 113.752 157.357 106.219 157.357C100.787 157.357 96.1086 153.681 95.1174 148.304C95.0381 147.711 94.3245 147.592 94.4038 148.383C95.6329 155.776 101.342 158.662 108.241 158.662C115.813 158.662 123.109 154.274 128.223 148.897C138.531 138.024 139.76 125.808 142.932 118.968C144.439 115.845 145.787 115.726 146.897 115.845ZM188.844 105.407C190.351 102.837 190.271 100.821 186.743 100.821C184.086 100.9 179.249 102.758 176.989 104.498C176.474 105.012 176.712 105.289 177.346 105.012C177.782 104.854 178.298 104.577 178.774 104.379C181.311 102.995 180.28 105.882 179.725 106.949C176.712 112.207 171.36 119.601 168.545 123.277C167.197 125.096 165.69 126.875 164.223 128.417C161.527 130.987 156.175 135.534 152.091 137.036C138.968 141.938 155.699 119.64 157.086 117.821C160.179 113.947 167.117 107.186 169.219 103.786C170.725 101.216 170.646 99.2 167.117 99.2C164.461 99.2791 159.624 101.137 157.364 102.877C156.849 103.391 157.086 103.668 157.721 103.391C158.157 103.233 158.672 102.956 159.148 102.758C161.686 101.374 160.655 104.261 160.1 105.328C157.086 110.586 151.734 117.98 148.919 121.656C146.619 124.74 143.805 127.824 141.624 129.564C140.752 130.275 141.267 130.947 142.139 130.354C142.932 129.84 144.082 128.694 145.39 127.35C143.012 132.094 141.069 138.775 147.333 139.566C152.686 140.278 159.029 134.861 163.152 130.829C163.589 130.394 164.104 129.88 164.619 129.366C164.738 129.247 164.857 129.129 164.976 129.01C162.597 133.754 160.655 140.436 166.919 141.227C173.778 142.176 182.302 132.964 185.593 129.564C186.227 128.931 186.029 127.824 184.959 128.931C183.016 130.947 176.434 136.917 171.677 138.696C158.553 143.599 175.285 121.301 176.672 119.482C179.804 115.528 186.743 108.768 188.844 105.407Z" fill="black"/>
<path d="M63.1221 116.043C64.1926 116.912 66.1353 116.398 67.4437 114.975C68.8314 113.473 69.0296 111.535 67.9591 110.666C66.8886 109.796 64.9459 110.31 63.6375 111.812C62.2499 113.315 62.0516 115.173 63.1221 116.043ZM59.9503 118.85C59.6728 118.85 59.1574 119.364 59.5935 119.561C60.1882 119.759 60.4657 120.273 60.4657 120.985C59.9503 123.95 56.2631 127.31 54.8358 128.457C54.479 128.813 54.9944 129.603 55.3512 129.327C56.1442 128.694 57.8094 127.389 59.1574 125.65C56.9371 130.592 52.5759 136.997 50.9107 139.25C44.4085 148.225 34.5363 156.488 27.7566 156.488C22.3249 156.488 17.7258 152.811 16.7346 147.434C16.6553 146.841 15.8623 146.722 16.0209 147.513C17.25 154.906 22.9592 157.792 29.8579 157.792C37.4305 157.792 46.3116 152.337 51.2279 146.722C59.1574 137.669 64.2719 127.231 62.9239 121.34C62.3292 119.126 60.8226 118.771 59.9503 118.85ZM108.637 138.578C110.739 138.064 112.444 136.918 112.444 135.099C112.444 134.901 112.087 134.901 112.087 135.099C112.087 136.166 110.858 137.076 109.47 137.273C106.219 137.787 99.796 133.992 96.7828 130.078C100.034 131.303 106.655 129.524 109.787 127.271C112.681 125.175 113.831 122.882 114.029 121.024C114.386 117.94 111.016 116.122 106.298 117.94C103.285 119.166 99.6771 121.815 95.9106 126.796C99.8753 120.273 107.686 109.598 115.338 102.798C124.655 94.535 130.047 96.1165 121.681 104.893C118.232 108.491 111.73 113.156 107.25 115.173C105.862 115.766 106.536 116.557 107.527 116.122C112.285 114.026 118.629 109.717 122.474 106.119C133.814 95.2467 124.338 87.0627 111.809 98.5677C103.285 106.356 97.7344 114.58 92.8974 125.215C91.2322 127.231 90.0031 128.892 88.4965 130.157C88.2983 130.315 88.1793 130.473 88.0604 130.631C83.8974 134.19 77.3556 139.013 73.2719 139.052C70.3776 139.132 69.1485 136.957 69.6639 134.15C70.4569 129.762 75.0164 124.582 78.9018 122.803C83.937 120.51 86.9106 124.978 80.2895 128.536C77.752 129.841 74.7388 130.552 73.5098 130.552C72.0824 130.552 72.2014 131.145 73.4305 131.185C75.4525 131.264 78.7036 130.394 80.8445 129.406C87.6243 126.164 88.0604 120.115 80.6859 119.917C72.6772 119.64 63.0825 126.441 63.1618 135.02C63.2411 138.894 66.3336 140.99 70.5758 140.99C77.6727 140.911 83.9767 135.534 89.1705 130.789C89.9238 130.157 90.6375 129.485 91.3511 128.773C89.5273 133.359 88.6154 137.629 89.0516 140.792C89.3291 143.085 90.6375 144.153 91.6683 145.022C91.8665 145.181 92.3027 145.022 92.0251 144.587C90.5185 142.808 90.9546 137.471 93.0163 132.292C94.8004 135.771 101.58 140.159 108.637 138.578ZM100.113 123.554C108.4 116.161 111.651 122.764 106.378 126.796C103.642 128.892 98.2101 130.473 96.5053 129.445L96.1485 129.248C95.9502 128.892 95.7123 128.536 95.5538 128.18C96.9414 126.52 98.5273 124.978 100.113 123.554ZM146.184 115.173C149.514 115.529 148.126 111.496 144.756 112.524C143.25 112.959 141.783 115.845 140.712 118.336C137.382 123.278 131.831 130.038 127.946 133.597C124.496 136.562 121.325 137.352 125.21 131.817C126.796 129.603 128.818 127.231 129.968 124.859C132.703 118.889 126.875 116.24 122.157 119.838C119.422 121.933 115.734 126.243 112.84 128.615C112.047 129.248 112.245 130.196 113.038 129.564C115.338 127.706 119.382 123.436 122.871 120.945C125.765 118.731 126.915 120.154 125.25 122.012C122.95 124.661 118.906 129.287 117.875 132.213C116.448 136.601 118.153 138.538 121.047 138.538C125.012 138.538 130.919 132.371 134.884 127.468C136.192 125.808 137.62 123.871 138.849 122.012C135.399 128.694 131.792 135.455 127.311 141.583C120.968 150.202 113.038 156.685 105.505 156.685C100.074 156.685 95.3952 153.009 94.404 147.632C94.3247 147.039 93.611 146.92 93.6903 147.711C94.9194 155.104 100.629 157.99 107.527 157.99C115.1 157.99 122.395 153.602 127.51 148.225C137.818 137.352 139.047 125.136 142.219 118.296C143.725 115.173 145.113 115.015 146.184 115.173ZM188.131 104.696C189.637 102.126 189.558 100.11 186.029 100.11C183.373 100.189 178.536 102.047 176.276 103.786C175.761 104.3 175.998 104.577 176.633 104.3C177.069 104.142 177.584 103.865 178.06 103.668C180.598 102.284 179.567 105.17 179.012 106.238C175.998 111.496 170.646 118.889 167.831 122.566C166.483 124.385 164.976 126.164 163.51 127.706C160.814 130.275 155.461 134.822 151.377 136.324C138.254 141.227 154.985 118.929 156.373 117.11C159.465 113.236 166.404 106.475 168.505 103.075C170.012 100.505 169.932 98.4886 166.404 98.4886C163.747 98.5677 158.91 100.426 156.651 102.165C156.135 102.679 156.373 102.956 157.007 102.679C157.443 102.521 157.959 102.245 158.435 102.047C160.972 100.663 159.941 103.549 159.386 104.617C156.373 109.875 151.021 117.268 148.206 120.945C145.906 124.029 143.091 127.113 140.91 128.852C140.038 129.564 140.554 130.236 141.426 129.643C142.219 129.129 143.369 127.982 144.677 126.638C142.298 131.382 140.355 138.064 146.62 138.855C151.972 139.566 158.316 134.15 162.439 130.117C162.875 129.682 163.391 129.168 163.906 128.655C164.025 128.536 164.144 128.417 164.263 128.299C161.884 133.043 159.941 139.725 166.206 140.515C173.065 141.464 181.589 132.252 184.88 128.852C185.514 128.22 185.316 127.113 184.245 128.22C182.302 130.236 175.721 136.206 170.963 137.985C157.84 142.887 174.571 120.589 175.959 118.771C179.131 114.817 186.029 108.056 188.131 104.696Z" fill="white"/>
<defs>
<linearGradient id="paint0_linear_1102_23" x1="1266.32" y1="3867.51" x2="3375.64" y2="4116.98" gradientUnits="userSpaceOnUse">
<stop stop-color="#919191"/>
<stop offset="1" stop-color="white"/>
</linearGradient>
<linearGradient id="paint1_linear_1102_23" x1="978.465" y1="2225.48" x2="2257.8" y2="2407.65" gradientUnits="userSpaceOnUse">
<stop stop-color="#990000"/>
<stop offset="1" stop-color="#E80000"/>
</linearGradient>
</defs>
</svg>
