<svg width="240" height="240" viewBox="0 0 240 240" fill="none" xmlns="http://www.w3.org/2000/svg">
<circle cx="120" cy="120" r="120" fill="#A86454"/>
<path d="M181.386 101.979C181.101 95.7227 181.955 90.1773 179.11 85.4849C172.281 73.8252 155.21 67 121.068 67C86.9254 67 69.0007 73.8252 62.1722 85.6271C59.4693 90.4617 59.7538 95.8649 59.327 102.121C59.0425 107.098 56.7663 112.359 57.7622 118.047C58.9002 125.441 59.327 132.835 60.4651 139.66C61.3187 145.206 69.0007 149.898 69.712 155.159C71.7036 169.662 86.7831 176.345 120.925 176.345V177.483H120.072H121.068V176.345C155.21 176.345 169.72 169.662 171.57 155.159C172.281 149.756 179.394 145.206 180.248 139.66C181.386 132.835 181.812 125.441 182.951 118.047C183.946 112.359 181.67 106.956 181.386 101.979Z" fill="#EFCCA3"/>
<path d="M120.523 107.154C126.643 107.296 130.913 111.133 134.898 114.684C139.595 118.805 147.566 121.646 150.84 125.198C154.113 128.75 158.383 132.302 159.949 137.843C161.515 143.384 161.942 150.488 161.942 152.335C161.942 154.182 162.938 153.756 165.784 152.335C172.474 149.068 179.875 140.259 179.875 140.259C179.021 145.8 171.762 150.772 171.051 156.029C169.343 170.521 155.252 177.483 120.381 177.483H120.238H121.092" fill="#CCAC8D"/>
<path d="M142.943 95.9583C144.223 100.372 148.774 115.321 139.957 110.338C139.957 110.338 143.654 112.474 145.93 120.589C148.347 128.705 154.178 129.701 154.178 129.701C154.178 129.701 163.706 131.552 170.816 125.43C176.789 120.305 177.785 111.193 175.225 104.216C172.665 97.3821 168.114 95.2464 161.431 93.8227C154.747 92.2565 141.379 90.9751 142.943 95.9583Z" fill="#CCAC8D"/>
<path d="M159.917 124.737C166.872 124.737 172.51 119.152 172.51 112.263C172.51 105.374 166.872 99.7891 159.917 99.7891C152.962 99.7891 147.324 105.374 147.324 112.263C147.324 119.152 152.962 124.737 159.917 124.737Z" fill="black"/>
<path d="M156.59 110.004C158.427 110.004 159.916 108.515 159.916 106.678C159.916 104.841 158.427 103.352 156.59 103.352C154.753 103.352 153.264 104.841 153.264 106.678C153.264 108.515 154.753 110.004 156.59 110.004Z" fill="white"/>
<path d="M140.814 111.668C140.814 111.668 152.076 119.338 158.206 126.866C164.336 134.395 164.193 135.815 164.193 135.815L159.774 137.804C159.774 137.804 153.502 126.014 145.803 121.611C137.963 117.208 137.107 113.515 137.107 113.515L140.814 111.668Z" fill="#EFCCA3"/>
<path d="M121.045 107.154C114.914 107.296 110.353 111.133 106.218 114.684C101.514 118.805 93.2456 121.646 89.9667 125.198C86.6879 128.75 82.2685 132.302 80.7004 137.843C79.1322 143.384 78.562 150.488 78.562 152.335C78.562 154.182 78.8471 154.324 74.7129 152.335C68.0127 149.21 60.5996 140.259 60.5996 140.259C61.455 145.8 68.7255 150.772 69.4383 156.029C71.4341 170.521 85.5474 177.483 120.474 177.483H121.187" fill="#CCAC8D"/>
<path d="M154.022 131.142C147.19 122.785 136.229 114.994 120.997 114.994H120.855C105.624 114.994 94.663 122.785 87.8303 131.142C80.7129 139.782 81.2823 143.182 81.2823 151.397C81.2823 181.143 91.8161 172.645 98.7911 176.327C105.909 179.869 113.311 178.735 120.855 178.735H120.997C128.684 178.735 135.944 179.727 143.061 176.186C150.036 172.645 160.57 181.427 160.57 151.681C160.713 143.465 161.14 139.782 154.022 131.142Z" fill="#56332B"/>
<path d="M120.265 122.361C120.265 122.361 119.306 136.07 117.387 138.756L120.951 137.908L120.265 122.361Z" fill="#442823"/>
<path d="M121.208 122.361C121.208 122.361 122.231 136.07 124.278 138.756L120.477 137.908L121.208 122.361Z" fill="#442823"/>
<path d="M109.306 118.969C107.889 115.679 112.991 110.385 121.069 110.242C129.147 110.242 134.249 115.536 132.832 118.969C131.415 122.403 126.313 123.405 121.069 123.548C115.967 123.405 110.723 122.403 109.306 118.969Z" fill="#56332B"/>
<path d="M121.118 122.254C121.118 121.686 125.98 121.544 128.553 119.838C128.553 119.838 123.263 121.544 122.119 120.833C120.975 120.264 120.689 118.559 120.689 118.559C120.689 118.559 120.26 120.264 119.402 120.833C118.402 121.401 112.396 119.838 112.396 119.838C112.396 119.838 120.403 121.828 120.403 122.254C120.403 122.681 120.26 124.102 120.26 125.097C120.26 128.651 120.26 137.464 120.832 138.175C121.69 139.454 121.404 128.651 121.404 125.097C121.261 123.96 121.261 122.823 121.118 122.254Z" fill="black"/>
<path d="M121.354 141.288C123.772 141.288 128.04 142.978 131.881 145.653C128.182 141.57 123.772 138.754 121.354 138.754C118.794 138.754 113.388 141.851 109.547 146.357C113.53 143.259 118.651 141.288 121.354 141.288Z" fill="#7F4A41"/>
<path d="M120.381 166.544C114.977 166.544 109.715 164.843 104.88 163.567C103.884 163.284 102.889 163.993 101.893 163.709C92.9334 160.874 85.6802 156.054 81.2715 149.959V151.376C81.2715 181.145 91.7956 172.782 98.7643 176.325C105.875 179.869 113.271 178.735 120.808 178.735H120.95C128.63 178.735 135.883 179.728 142.994 176.184C149.963 172.64 160.487 181.287 160.487 151.518C160.487 150.384 160.487 149.25 160.629 148.258C156.505 154.92 148.967 160.165 139.581 163.284C138.728 163.567 136.737 162.859 135.883 163C130.763 164.701 126.212 166.544 120.381 166.544Z" fill="#442823"/>
<path d="M106.837 150.396C106.837 150.396 103.273 161.121 105.697 165.84L102.418 164.41C102.418 164.41 104.841 153.542 106.837 150.396ZM135.064 150.396C135.064 150.396 138.628 161.121 136.204 165.84L139.483 164.41C139.483 164.41 136.917 153.542 135.064 150.396Z" fill="#442823"/>
<path d="M97.7677 95.9583C96.4879 100.372 91.9372 115.321 100.754 110.338C100.754 110.338 97.0567 112.474 94.7814 120.589C92.506 128.705 86.5332 129.701 86.5332 129.701C86.5332 129.701 77.0052 131.552 69.8948 125.43C63.922 120.305 62.9265 111.193 65.4863 104.216C68.046 97.2397 72.5967 95.2464 79.2806 93.8227C85.9644 92.2565 99.1898 90.9751 97.7677 95.9583Z" fill="#CCAC8D"/>
<path d="M120.95 138.704C124.788 138.704 136.727 146.952 136.869 157.049V156.481C136.869 145.957 127.204 137.566 120.95 137.566C114.696 137.566 105.031 146.099 105.031 156.481V157.049C105.173 146.952 117.113 138.704 120.95 138.704Z" fill="black"/>
<path d="M124.076 119.095C124.684 118.938 124.939 117.886 124.645 116.746C124.351 115.606 123.619 114.809 123.011 114.966C122.403 115.123 122.149 116.174 122.443 117.314C122.737 118.454 123.468 119.252 124.076 119.095Z" fill="#331712"/>
<path d="M116.772 119.073C117.372 119.259 118.141 118.499 118.489 117.374C118.838 116.249 118.635 115.187 118.035 115.001C117.435 114.815 116.666 115.576 116.318 116.7C115.969 117.825 116.172 118.887 116.772 119.073Z" fill="#331712"/>
<path d="M81.6282 124.737C88.5173 124.737 94.1021 119.152 94.1021 112.263C94.1021 105.374 88.5173 99.7891 81.6282 99.7891C74.739 99.7891 69.1543 105.374 69.1543 112.263C69.1543 119.152 74.739 124.737 81.6282 124.737Z" fill="black"/>
<path d="M84.8361 110.004C86.6732 110.004 88.1625 108.515 88.1625 106.678C88.1625 104.841 86.6732 103.352 84.8361 103.352C82.999 103.352 81.5098 104.841 81.5098 106.678C81.5098 108.515 82.999 110.004 84.8361 110.004Z" fill="white"/>
<path d="M124.751 112.389C124.751 112.26 121.454 113.678 120.594 113.806C119.733 113.678 116.436 112.26 116.436 112.389H124.751Z" fill="#7F4A41"/>
<path d="M99.8992 111.668C99.8992 111.668 88.6372 119.338 82.5072 126.866C76.3773 134.395 76.5198 135.815 76.5198 135.815L80.9391 137.804C80.9391 137.804 87.2116 126.014 94.9097 121.611C102.608 117.208 103.606 113.515 103.606 113.515L99.8992 111.668Z" fill="#EFCCA3"/>
<path d="M75.1102 88.8562C75.1102 88.8562 71.2706 99.4001 62.7383 103.817C62.7383 103.817 76.1056 102.25 75.1102 88.8562ZM164.842 88.8562C164.842 88.8562 168.681 99.4001 177.214 103.817C177.214 103.817 163.846 102.25 164.842 88.8562ZM140.525 108.519C140.525 108.519 132.135 99.6851 120.9 99.4001H121.043H121.185C109.808 99.6851 101.56 108.519 101.56 108.519C111.373 101.68 119.763 101.822 121.185 101.822C121.043 101.822 130.712 101.68 140.525 108.519ZM130.712 89.996C130.712 89.996 126.446 84.0116 120.758 83.8691H121.043C116.776 84.0116 111.23 89.996 111.23 89.996C116.065 85.294 121.043 85.4365 121.043 85.4365C121.043 85.4365 125.735 85.294 130.712 89.996ZM81.5094 133.739C81.5094 133.739 74.8257 137.016 69.9908 135.022H69.8486C65.5824 132.599 63.4493 125.333 63.4493 125.333C63.4493 125.333 67.7155 138.156 81.5094 133.739ZM159.438 133.739C159.438 133.739 166.122 137.016 170.957 135.022C176.645 132.599 177.498 125.333 177.498 125.333C177.498 125.333 173.232 138.156 159.438 133.739Z" fill="#CCAC8D"/>
<path d="M89.3643 88.2518C93.0577 87.5424 99.166 87.4006 103.996 88.9612C110.104 91.0894 105.132 98.8927 106.411 99.3184C107.689 99.744 109.394 93.927 120.758 94.4945C132.264 95.062 133.543 100.17 135.105 99.3184C136.668 98.4671 133.543 85.1305 150.731 88.2518C150.731 88.2518 132.691 83.428 133.543 96.4808C133.543 96.4808 123.173 88.5356 108.684 95.6295C108.826 95.6295 112.519 83.428 89.3643 88.2518ZM152.294 88.2518C152.578 88.2518 152.72 88.3937 152.862 88.3937C153.004 88.3937 152.72 88.2518 152.294 88.2518ZM84.3925 70.8008C84.3925 70.8008 69.0507 90.0963 66.7779 97.4739C64.505 104.994 62.8004 135.781 60.8116 140.179L53.709 109.817L66.7779 78.1785L84.3925 70.8008ZM156.556 70.8008C156.556 70.8008 171.897 90.0963 174.17 97.4739C176.443 104.994 178.148 135.781 180.136 140.179L187.239 109.817L174.17 78.1785L156.556 70.8008Z" fill="#CCAC8D"/>
<path d="M155.688 70.6036C155.688 70.6036 172.177 84.4227 177.01 100.379C181.843 116.335 179.853 135.71 183.548 138.132C188.808 141.551 194.778 121.179 196.768 119.042C199.895 115.623 210.271 106.932 210.982 105.365C211.693 103.798 189.945 80.0063 180.421 75.3049C168.907 69.8913 154.693 69.4639 155.688 70.6036Z" fill="#56332B"/>
<path d="M169.895 79.1172C169.895 79.1172 189.425 104.086 189.14 135.19L196.981 119.21C196.838 119.21 189.995 98.807 169.895 79.1172Z" fill="#442823"/>
<path d="M84.3109 70.6036C84.3109 70.6036 67.8222 84.4227 62.9893 100.379C58.1564 116.335 60.1464 135.71 56.4507 138.132C51.1914 141.551 45.2214 121.179 43.2314 119.042C40.1042 115.623 29.7277 106.932 29.017 105.365C28.3063 103.798 50.0543 80.0063 59.5779 75.3049C71.0915 69.8913 85.3059 69.4639 84.3109 70.6036Z" fill="#56332B"/>
<path d="M70.342 79.1172C70.342 79.1172 50.7081 104.086 50.9948 135.19L43.2559 119.21C43.2559 119.21 50.1349 98.807 70.342 79.1172Z" fill="#442823"/>
<path d="M59.6504 135.651C59.6504 135.651 61.0738 143.406 63.3511 145.847C65.6285 148.288 64.0628 143.98 64.0628 143.98C64.0628 143.98 61.6431 142.688 62.0701 132.779C62.4971 122.87 59.6504 135.651 59.6504 135.651ZM181.063 135.651C181.063 135.651 179.64 143.406 177.362 145.847C175.085 148.288 176.651 143.98 176.651 143.98C176.651 143.98 179.07 142.688 178.643 132.779C178.216 122.87 181.063 135.651 181.063 135.651Z" fill="#CCAC8D"/>
<path d="M106.192 130.958C106.82 130.958 107.329 130.449 107.329 129.821C107.329 129.193 106.82 128.684 106.192 128.684C105.564 128.684 105.055 129.193 105.055 129.821C105.055 130.449 105.564 130.958 106.192 130.958Z" fill="#442823"/>
<path d="M99.6527 137.78C100.281 137.78 100.79 137.271 100.79 136.643C100.79 136.015 100.281 135.506 99.6527 135.506C99.0247 135.506 98.5156 136.015 98.5156 136.643C98.5156 137.271 99.0247 137.78 99.6527 137.78Z" fill="#442823"/>
<path d="M97.5218 130.958C98.1498 130.958 98.6588 130.449 98.6588 129.821C98.6588 129.193 98.1498 128.684 97.5218 128.684C96.8938 128.684 96.3848 129.193 96.3848 129.821C96.3848 130.449 96.8938 130.958 97.5218 130.958Z" fill="#442823"/>
<path d="M133.909 130.958C134.536 130.958 135.046 130.449 135.046 129.821C135.046 129.193 134.536 128.684 133.909 128.684C133.281 128.684 132.771 129.193 132.771 129.821C132.771 130.449 133.281 130.958 133.909 130.958Z" fill="#442823"/>
<path d="M140.446 137.78C141.074 137.78 141.583 137.271 141.583 136.643C141.583 136.015 141.074 135.506 140.446 135.506C139.818 135.506 139.309 136.015 139.309 136.643C139.309 137.271 139.818 137.78 140.446 137.78Z" fill="#442823"/>
<path d="M142.578 130.958C143.206 130.958 143.715 130.449 143.715 129.821C143.715 129.193 143.206 128.684 142.578 128.684C141.95 128.684 141.441 129.193 141.441 129.821C141.441 130.449 141.95 130.958 142.578 130.958Z" fill="#442823"/>
</svg>
