<svg xmlns="http://www.w3.org/2000/svg" viewBox="0 0 100 100"><defs><style>.cls-1{fill:#f1e05a;}.cls-2{fill:#fff;}</style></defs><g id="Layer_2" data-name="Layer 2"><g id="Layer_1-2" data-name="Layer 1"><circle class="cls-1" cx="50" cy="50" r="50"/><path class="cls-2" d="M27.22,26.22l1,0H71.77c1,0,1.07,0,1,1.07-.34,3.87-.71,7.75-1,11.63-.25,2.79-.49,5.59-.74,8.39q-.45,5.06-.92,10.12c-.25,2.77-.49,5.55-.73,8.32-.19,2.16-.39,4.31-.56,6.47,0,.49-.36.59-.73.69l-7.33,2-9.93,2.75a2.54,2.54,0,0,1-1.42,0q-8.6-2.4-17.19-4.77c-.54-.15-.8-.36-.84-1-.29-3.51-.62-7-.94-10.52s-.62-6.7-.92-10.05-.58-6.74-.88-10.12-.61-6.69-.91-10c-.12-1.24-.22-2.48-.32-3.72a1.86,1.86,0,0,0-.12-.74ZM50,35.79v0H36.72c-.91,0-.88,0-.8.87.26,2.8.49,5.6.74,8.4.2,2.27.38,4.54.6,6.81.1,1,.14,1,1.12,1l17.64,0c1,0,1,0,.95,1-.15,1.86-.38,3.71-.49,5.58a1,1,0,0,1-1,1.09c-1.66.4-3.3.86-4.94,1.32a2.27,2.27,0,0,1-1.29,0C47.65,61.47,46,61,44.35,60.6a1,1,0,0,1-.84-1.08c-.06-1-.19-2.06-.26-3.09,0-.41-.2-.57-.6-.57H38.22c-.45,0-.61.18-.57.63.24,2.52.46,5,.68,7.57a.78.78,0,0,0,.63.78l10.6,2.93a1.71,1.71,0,0,0,.95,0l10.6-2.93a.66.66,0,0,0,.56-.66c.21-2.53.45-5,.68-7.57.25-2.83.5-5.65.77-8.47.07-.81.05-.86-.78-.86H43.18c-.39,0-.73,0-.78-.54-.12-1.5-.29-3-.4-4.48-.07-.87,0-.88.83-.88H63.17c.37,0,.54-.13.57-.51.12-1.45.26-2.89.41-4.34,0-.56-.14-.78-.73-.78C59,35.8,54.47,35.79,50,35.79Z"/></g></g></svg>