<svg width="240" height="240" viewBox="0 0 240 240" fill="none" xmlns="http://www.w3.org/2000/svg">
<circle cx="120" cy="120" r="120" fill="#123A50"/>
<path d="M171.321 152.233L128.547 60.9423C128.015 59.819 127.192 58.8611 126.163 58.1698C125.134 57.4785 123.938 57.0796 122.702 57.0153C121.464 56.9319 120.226 57.1913 119.124 57.7653C118.023 58.3394 117.098 59.206 116.452 60.2711L70.0594 135.787C69.354 136.927 68.9866 138.246 69.0004 139.589C69.0141 140.931 69.4084 142.242 70.1371 143.368L92.8188 178.668C93.6769 179.993 94.9383 181.004 96.4148 181.549C97.8913 182.095 99.5038 182.147 101.012 181.696L166.835 162.129C167.826 161.837 168.743 161.336 169.525 160.658C170.306 159.979 170.934 159.14 171.365 158.197C171.79 157.259 172.007 156.24 172 155.209C171.993 154.178 171.762 153.161 171.325 152.229L171.321 152.233ZM161.745 156.148L105.89 172.746C104.186 173.256 102.551 171.772 102.905 170.043L122.861 74.0166C123.234 72.2201 125.702 71.9354 126.483 73.5981L163.424 152.435C163.587 152.787 163.673 153.169 163.674 153.557C163.676 153.945 163.595 154.328 163.435 154.681C163.275 155.034 163.041 155.348 162.748 155.601C162.456 155.854 162.113 156.041 161.742 156.147L161.745 156.148Z" fill="white"/>
</svg>
