<svg width="240" height="240" viewBox="0 0 240 240" fill="none" xmlns="http://www.w3.org/2000/svg">
<circle cx="120" cy="120" r="120" fill="#080808"/>
<path d="M122.078 145.417C121.321 145.177 120.458 144.475 119.371 143.78C118.291 143.084 116.986 142.404 116.477 141.776C115.967 141.148 116.244 140.573 116.694 140.147C117.144 139.728 117.766 139.459 118.659 139.661C119.551 139.863 120.698 140.528 121.793 141.246C122.888 141.963 123.915 142.733 124.298 143.398C124.672 144.064 124.395 144.624 123.938 145.02C123.608 145.304 123.18 145.506 122.678 145.506C122.483 145.514 122.288 145.484 122.078 145.417ZM113.942 138.898C113.245 139.541 112.862 140.401 113.695 141.425C114.527 142.449 116.582 143.645 118.464 144.931C120.353 146.216 122.07 147.599 123.45 148.07C124.83 148.541 125.872 148.115 126.472 147.353C127.065 146.59 127.215 145.506 126.442 144.333C125.677 143.159 123.99 141.903 122.213 140.737C120.436 139.564 118.554 138.48 117.106 138.151C116.761 138.076 116.447 138.039 116.154 138.039C115.194 138.039 114.474 138.405 113.942 138.898ZM153.415 176.109C152.98 176.415 152.62 176.953 152.717 177.491C152.807 178.03 153.347 178.583 154.014 179.398C154.682 180.212 155.477 181.304 155.994 181.902C156.511 182.5 156.744 182.597 156.954 182.582C157.164 182.567 157.359 182.447 157.591 182.223C157.824 181.999 158.109 181.67 158.304 181.057C158.499 180.444 158.611 179.532 158.319 178.695C158.026 177.858 157.321 177.08 156.684 176.587C156.047 176.086 155.469 175.869 154.914 175.795C154.794 175.78 154.674 175.772 154.554 175.772C154.149 175.765 153.759 175.869 153.415 176.109ZM157.074 183.576C156.834 183.569 156.609 183.404 155.514 182.298C154.419 181.192 152.447 179.136 151.217 177.499C149.98 175.862 149.485 174.636 149.245 173.253C149.013 171.87 149.043 170.33 149.86 169.239C150.678 168.155 152.282 167.52 153.864 167.46C155.447 167.4 157.006 167.916 158.379 169.247C159.751 170.585 160.928 172.745 161.251 174.718C161.565 176.699 161.026 178.493 160.313 179.891C159.601 181.289 158.724 182.283 158.154 182.858C157.599 183.412 157.336 183.569 157.096 183.569C157.081 183.576 157.074 183.576 157.074 183.576ZM132.666 107.579C132.036 107.646 131.219 108.408 129.554 109.769C127.889 111.129 125.362 113.088 121.928 115.009C118.494 116.922 114.144 118.798 110.613 120.488C107.081 122.177 104.374 123.694 103.077 125.81C101.787 127.925 101.914 130.654 103.377 132.171C104.839 133.688 107.621 134.002 110.005 134.1C112.382 134.197 114.354 134.085 116.199 134.75C118.044 135.423 119.761 136.873 121.928 138.599C124.095 140.326 126.705 142.329 128.872 142.8C131.039 143.271 132.756 142.21 134.616 141.283C136.475 140.356 138.485 139.564 141.267 139.601C144.049 139.638 147.618 140.506 151.15 142.367C154.682 144.228 158.184 147.076 160.028 148.848C161.873 150.612 162.068 151.292 161.865 151.553C161.663 151.823 161.056 151.681 159.586 150.507C158.116 149.326 155.784 147.113 152.717 145.364C149.65 143.615 145.848 142.337 142.227 142.442C138.605 142.539 135.17 144.019 132.996 146.553C130.821 149.094 129.906 152.697 128.902 155.254C127.897 157.81 126.81 159.312 125.377 159.866C123.953 160.419 122.198 160.023 120.098 159.126C118.006 158.229 115.569 156.831 113.552 155.822C111.535 154.805 109.923 154.17 108.903 153.183C107.883 152.196 107.441 150.858 107.381 148.915C107.313 146.971 107.621 144.422 107.763 142.539C107.906 140.663 107.891 139.452 107.471 138.345C107.058 137.246 106.241 136.252 105.724 135.737C105.206 135.221 104.989 135.176 104.884 135.303C104.779 135.43 104.794 135.737 104.959 136.484C105.131 137.232 105.454 138.428 105.326 140.834C105.191 143.234 104.599 146.837 104.134 149.573C103.669 152.316 103.332 154.192 103.984 155.62C104.636 157.048 106.286 158.019 109.285 159.656C112.292 161.293 116.649 163.596 120.676 166.04C124.695 168.484 128.377 171.078 132.381 174.18C136.385 177.282 140.719 180.907 143.636 183.434C146.546 185.968 148.046 187.411 149.2 187.852C150.355 188.285 151.172 187.717 151.502 186.813C151.832 185.908 151.675 184.682 151.397 183.606C151.12 182.53 150.715 181.618 149.598 180.167C148.48 178.717 146.643 176.729 144.499 174.905C142.354 173.089 139.902 171.444 138.477 170.316C137.053 169.187 136.663 168.574 136.888 168.387C137.113 168.193 137.945 168.417 139.16 169.187C140.375 169.964 141.964 171.287 143.741 172.618C145.519 173.948 147.483 175.279 149.245 176.983C151.007 178.687 152.56 180.765 153.617 182.268C154.667 183.77 155.222 184.69 155.822 185.049C156.421 185.407 157.066 185.206 157.899 184.675C158.731 184.144 159.766 183.284 161.101 182.021C162.435 180.758 164.077 179.084 165.232 177.282C166.387 175.488 167.047 173.575 167.474 171.512C167.894 169.448 168.082 167.236 169.326 165.076C170.579 162.908 172.896 160.785 176.78 157.414C180.664 154.043 186.108 149.416 190.96 144.968C195.811 140.521 200.078 136.26 203.67 131.498C207.262 126.737 210.194 121.467 211.678 118.47C213.163 115.472 213.208 114.74 212.728 114.538C212.248 114.328 211.244 114.65 208.147 116.87C205.05 119.09 199.861 123.216 194.004 127.559C188.148 131.902 181.632 136.462 176.488 139.287C171.344 142.113 167.572 143.204 164.865 143.488C162.158 143.765 160.516 143.234 159.443 142.666C158.371 142.098 157.861 141.492 157.764 140.864C157.666 140.236 157.981 139.601 158.776 138.809C159.571 138.016 160.853 137.075 162.12 135.879C163.395 134.683 164.662 133.232 165.63 131.723C166.605 130.213 167.279 128.643 167.594 127.29C167.909 125.937 167.849 124.801 167.294 124.479C166.739 124.158 165.682 124.651 164.467 125.302C163.26 125.944 161.895 126.744 160.021 127.552C158.154 128.359 155.777 129.166 153.122 129.308C150.468 129.443 147.528 128.912 144.956 126.968C142.392 125.025 140.195 121.669 138.462 118.395C136.738 115.121 135.47 111.936 134.616 110.03C133.806 108.221 133.363 107.564 132.778 107.564C132.726 107.579 132.696 107.579 132.666 107.579ZM81.6157 55.1271C77.7764 55.456 72.2425 56.48 68.0958 57.5863C63.9566 58.6926 61.2196 59.8811 59.4799 60.7258C57.7477 61.563 57.0054 62.0563 56.8254 62.759C56.6454 63.4691 57.0279 64.3885 58.0252 66.018C59.015 67.655 60.6197 70.0022 62.0369 73.2014C63.4616 76.4007 64.7064 80.4521 64.7439 85.5425C64.7889 90.6254 63.6266 96.7474 62.9068 100.208C62.1869 103.669 61.9094 104.462 61.2046 104.835C60.4997 105.209 59.3674 105.157 57.2603 104.678C55.1607 104.192 52.0863 103.28 49.0119 102.742C45.945 102.204 42.8781 102.047 40.606 102.458C38.3264 102.877 36.8267 103.871 35.7694 105.209C34.7121 106.554 34.0897 108.251 33.6548 110.815C33.2199 113.379 32.9725 116.81 33.0024 119.172C33.0399 121.534 33.3549 122.827 34.0223 123.53C34.6896 124.233 35.6944 124.345 37.7115 123.934C39.7287 123.523 42.7506 122.588 46.8898 122.327C51.0365 122.065 56.3005 122.476 61.437 123.836C66.5736 125.197 71.5751 127.507 76.0592 130.781C80.5434 134.062 84.5101 138.315 87.7945 142.696C91.0864 147.076 93.6959 151.583 95.3231 154.215C96.9503 156.846 97.6026 157.616 98.1051 157.354C98.615 157.092 98.9899 155.807 99.1923 154.237C99.4023 152.675 99.4398 150.828 99.0424 147.898C98.6449 144.968 97.8051 140.947 96.6503 137.688C95.4955 134.428 94.0258 131.932 92.9385 130.078C91.8437 128.232 91.1239 127.036 91.1014 126.266C91.0714 125.496 91.7388 125.16 94.9257 123.911C98.1126 122.663 103.819 120.495 109.608 117.872C115.397 115.248 121.283 112.161 124.92 109.604C128.564 107.055 129.974 105.037 130.349 102.6C130.724 100.163 130.056 97.3006 129.157 94.5573C128.257 91.814 127.117 89.1977 125.182 85.6397C123.255 82.0816 120.533 77.5892 117.579 73.6499C114.624 69.7032 111.445 66.3095 109.33 64.4109C107.223 62.5198 106.181 62.1086 105.506 62.2581C104.831 62.4076 104.531 63.1103 104.254 65.7714C103.976 68.4324 103.736 73.0444 103.174 77.4247C102.612 81.805 101.734 85.9536 99.9347 90.6778C98.1425 95.4019 95.4281 100.709 92.5111 105.493C89.6017 110.284 86.4823 114.553 84.6076 116.421C82.733 118.29 82.0881 117.759 81.0308 116.892C79.9735 116.025 78.5038 114.837 77.3865 113.902C76.2692 112.968 75.4894 112.303 75.3394 111.712C75.1894 111.114 75.6693 110.591 77.364 108.363C79.0587 106.136 81.9681 102.204 84.5626 97.323C87.1571 92.4419 89.4292 86.6189 90.5315 80.2577C91.6413 73.9041 91.5738 67.0047 91.2439 62.7889C90.9139 58.573 90.314 57.0332 88.9493 56.0913C87.922 55.3812 86.4598 55 84.1652 55C83.4078 55 82.568 55.0448 81.6157 55.1271Z" fill="white"/>
</svg>
