<svg width="240" height="240" viewBox="0 0 240 240" fill="none" xmlns="http://www.w3.org/2000/svg">
<path d="M121.33 233.759C184.423 233.759 235.57 182.612 235.57 119.519C235.57 56.4263 184.423 5.2793 121.33 5.2793C58.2368 5.2793 7.08984 56.4263 7.08984 119.519C7.08984 182.612 58.2368 233.759 121.33 233.759Z" fill="url(#paint0_linear_1130_7)"/>
<path d="M120 0C96.2663 0 73.0655 7.03788 53.3316 20.2236C33.5977 33.4094 18.217 52.1509 9.13451 74.078C0.0519943 96.0051 -2.32441 120.133 2.30582 143.411C6.93605 166.689 18.3649 188.071 35.1472 204.853C51.9295 221.635 73.3115 233.064 96.5892 237.694C119.867 242.324 143.995 239.948 165.922 230.866C187.849 221.783 206.591 206.402 219.776 186.668C232.962 166.935 240 143.734 240 120C240 88.174 227.357 57.6516 204.853 35.1472C182.349 12.6428 151.826 0 120 0ZM176.79 26C192.484 35.172 205.524 48.267 214.63 64C221.375 75.2603 225.985 87.6678 228.23 100.6C228.571 102.037 228.54 103.538 228.141 104.96C227.742 106.382 226.988 107.679 225.95 108.73C213.401 122.98 198.732 135.214 182.46 145C182.13 145.203 181.746 145.302 181.359 145.283C180.972 145.265 180.599 145.131 180.289 144.897C179.98 144.664 179.747 144.344 179.623 143.977C179.498 143.61 179.487 143.214 179.59 142.84C189.686 105.032 187.732 65.0149 174 28.37C173.889 27.9981 173.889 27.602 174 27.2301C174.11 26.8581 174.326 26.5263 174.622 26.2751C174.918 26.0238 175.28 25.8641 175.665 25.8152C176.05 25.7664 176.441 25.8306 176.79 26ZM67.5501 24.29C83.3393 15.2794 101.201 10.5306 119.38 10.51C132.5 10.2898 145.548 12.4899 157.87 17C159.282 17.4178 160.564 18.1876 161.596 19.2372C162.628 20.2868 163.376 21.5817 163.77 23C169.844 40.9923 173.109 59.8132 173.45 78.8C173.457 79.1866 173.349 79.5665 173.139 79.8911C172.929 80.2157 172.626 80.4701 172.271 80.6216C171.915 80.7731 171.522 80.8149 171.142 80.7416C170.763 80.6682 170.414 80.4831 170.14 80.21C142.425 52.5509 106.766 34.2353 68.1401 27.82C67.7678 27.7325 67.4297 27.5369 67.1682 27.2578C66.9068 26.9787 66.7336 26.6285 66.6706 26.2513C66.6075 25.8741 66.6574 25.4867 66.8139 25.1377C66.9703 24.7888 67.2265 24.4938 67.5501 24.29ZM11.4301 118C11.5254 99.8177 16.3501 81.9731 25.4301 66.22C31.8134 54.75 40.2541 44.5533 50.3301 36.14C51.405 35.1276 52.7199 34.4055 54.1509 34.0416C55.582 33.6777 57.0821 33.684 58.5101 34.06C77.1206 37.8097 95.0436 44.4001 111.65 53.6C111.991 53.7855 112.269 54.0692 112.447 54.4143C112.626 54.7595 112.696 55.1502 112.65 55.5359C112.604 55.9216 112.443 56.2845 112.188 56.5776C111.933 56.8708 111.596 57.0806 111.22 57.18C73.417 67.3462 39.7303 89.0593 14.8601 119.29C14.6051 119.606 14.2572 119.833 13.8656 119.94C13.4741 120.046 13.0589 120.027 12.6791 119.884C12.2993 119.741 11.9742 119.482 11.7499 119.144C11.5257 118.806 11.4138 118.405 11.4301 118ZM64.5401 213.5C48.8442 204.33 35.8039 191.234 26.7001 175.5C19.9545 164.24 15.344 151.833 13.1001 138.9C12.7596 137.463 12.7902 135.962 13.189 134.54C13.5879 133.118 14.3418 131.821 15.3801 130.77C27.9287 116.516 42.5972 104.279 58.8701 94.49C59.2003 94.2871 59.584 94.1884 59.9712 94.2067C60.3584 94.225 60.731 94.3594 61.0407 94.5925C61.3504 94.8256 61.5828 95.1465 61.7075 95.5135C61.8322 95.8805 61.8436 96.2765 61.7401 96.65C51.6474 134.471 53.6121 174.499 67.3601 211.15C67.4702 211.524 67.4685 211.923 67.3551 212.296C67.2416 212.669 67.0215 213.001 66.7218 213.251C66.422 213.501 66.0558 213.658 65.6681 213.702C65.2805 213.746 64.8884 213.676 64.5401 213.5ZM173.78 215.23C158.005 224.229 140.162 228.974 122 229C108.878 229.202 95.831 226.989 83.5101 222.47C82.0994 222.051 80.8182 221.28 79.7864 220.231C78.7545 219.181 78.0057 217.887 77.6101 216.47C71.5387 198.477 68.2737 179.657 67.9301 160.67C67.9227 160.283 68.0311 159.903 68.2412 159.579C68.4514 159.254 68.7537 159 69.1094 158.848C69.4651 158.697 69.858 158.655 70.2377 158.728C70.6173 158.802 70.9664 158.987 71.2401 159.26C98.9548 186.919 134.614 205.235 173.24 211.65C173.623 211.735 173.971 211.934 174.238 212.22C174.506 212.506 174.68 212.867 174.739 213.255C174.797 213.642 174.737 214.038 174.566 214.391C174.395 214.744 174.121 215.036 173.78 215.23ZM191 203.34C189.926 204.353 188.611 205.077 187.18 205.442C185.749 205.808 184.249 205.804 182.82 205.43C164.203 201.693 146.272 195.109 129.66 185.91C129.322 185.723 129.048 185.44 128.872 185.096C128.696 184.752 128.626 184.364 128.673 183.98C128.719 183.597 128.878 183.236 129.131 182.944C129.383 182.651 129.717 182.441 130.09 182.34C167.893 172.174 201.58 150.461 226.45 120.23C226.703 119.917 227.049 119.691 227.437 119.583C227.826 119.476 228.238 119.493 228.616 119.632C228.994 119.771 229.32 120.025 229.546 120.358C229.773 120.691 229.89 121.087 229.88 121.49C229.783 139.672 224.959 157.516 215.88 173.27C209.505 184.737 201.071 194.931 191 203.34Z" fill="url(#paint1_radial_1130_7)"/>
<path d="M134.601 70.8109C133.565 70.0253 132.366 69.4818 131.092 69.2205C129.819 68.9592 128.503 68.9867 127.241 69.3009C112.731 72.2295 98.6281 76.9035 85.2409 83.2209C84.0405 83.7245 82.9682 84.4908 82.103 85.4633C81.2377 86.4359 80.6014 87.5901 80.2409 88.8409C75.5211 102.87 72.5192 117.419 71.301 132.171C71.1381 133.461 71.2664 134.771 71.6766 136.005C72.0867 137.239 72.7682 138.365 73.6709 139.301C83.4608 150.399 94.5582 160.271 106.721 168.701C107.756 169.488 108.955 170.034 110.228 170.297C111.502 170.56 112.819 170.534 114.081 170.221C128.591 167.292 142.694 162.618 156.081 156.301C157.279 155.794 158.35 155.027 159.215 154.055C160.08 153.083 160.717 151.93 161.081 150.681C165.794 136.651 168.789 122.102 170.001 107.351C170.164 106.061 170.035 104.751 169.625 103.517C169.215 102.283 168.534 101.157 167.631 100.221C157.845 89.1238 146.755 79.249 134.601 70.8109Z" fill="url(#paint2_linear_1130_7)"/>
<defs>
<linearGradient id="paint0_linear_1130_7" x1="121.33" y1="233.759" x2="121.33" y2="5.2793" gradientUnits="userSpaceOnUse">
<stop stop-color="#0044FF"/>
<stop offset="1" stop-color="#33CCFF"/>
</linearGradient>
<radialGradient id="paint1_radial_1130_7" cx="0" cy="0" r="1" gradientUnits="userSpaceOnUse" gradientTransform="translate(119.82 119.82) scale(119.216 119.216)">
<stop offset="0.95" stop-color="#F2F2F2"/>
<stop offset="1" stop-color="#CCCBCB"/>
</radialGradient>
<linearGradient id="paint2_linear_1130_7" x1="120.671" y1="170.461" x2="120.671" y2="69.0609" gradientUnits="userSpaceOnUse">
<stop/>
<stop offset="1" stop-color="#555555"/>
</linearGradient>
</defs>
</svg>
