<svg width="240" height="240" viewBox="0 0 240 240" fill="none" xmlns="http://www.w3.org/2000/svg">
<circle cx="120" cy="120" r="120" fill="#320000"/>
<path d="M112.548 144.502H78.2262L71.2143 166.242C71.0298 167.075 70.2917 167.63 69.4613 167.537H52.116C51.1011 167.537 50.8243 166.982 51.1011 165.872L80.8096 80.1145C81.0864 79.1894 81.3632 78.1718 81.7322 77.0617C82.1013 75.1189 82.2858 73.0837 82.2858 71.0485C82.1935 70.5859 82.5626 70.1233 83.0239 70.0308H106.92C107.658 70.0308 108.027 70.3084 108.119 70.7709L141.795 166.057C142.072 167.075 141.795 167.537 140.872 167.537H121.59C120.944 167.63 120.298 167.167 120.113 166.52L112.548 144.502ZM83.5775 125.722H107.012C106.459 123.78 105.72 121.467 104.89 119.062C104.06 116.564 103.229 113.881 102.399 111.106C101.476 108.238 100.646 105.463 99.7234 102.595C98.8008 99.7269 97.9704 97.0441 97.2323 94.3612C96.4942 91.7709 95.8484 89.3656 95.2025 87.1454H95.018C94.1876 91.1233 93.1727 95.1013 91.8811 99.0793C90.4971 103.52 89.1132 108.145 87.637 112.771C86.3453 117.489 84.9614 121.837 83.5775 125.722ZM162.37 86.2203C159.325 86.3128 156.373 85.1101 154.158 82.9824C152.036 80.6696 150.929 77.6167 151.021 74.4714C150.929 71.326 152.128 68.3656 154.343 66.2379C156.557 64.1101 159.509 63 162.554 63C166.152 63 168.92 64.1101 170.95 66.2379C172.98 68.4582 174.087 71.4185 173.995 74.4714C174.087 77.6167 172.98 80.6696 170.765 82.9824C168.643 85.2026 165.507 86.4053 162.37 86.2203ZM152.036 166.52V95.2863C152.036 94.3612 152.405 93.9912 153.236 93.9912H171.504C172.334 93.9912 172.703 94.4537 172.703 95.2863V166.52C172.703 167.537 172.334 168 171.504 168H153.42C152.498 168 152.036 167.445 152.036 166.52Z" fill="#FF9A00"/>
</svg>
