<svg xmlns="http://www.w3.org/2000/svg" viewBox="0 0 100 100"><defs><style>.cls-1{fill:#e34e27;}.cls-2{fill:#fff;}</style></defs><g id="Layer_2" data-name="Layer 2"><g id="Layer_1-2" data-name="Layer 1"><circle class="cls-1" cx="50" cy="50" r="50"/><path class="cls-2" d="M72.76,27.61a35.2,35.2,0,0,0-.38,3.56c-.33,3.51-.64,7-.95,10.53-.29,3.33-.57,6.66-.87,10s-.62,6.79-.92,10.19c-.25,2.8-.49,5.6-.74,8.4,0,.53-.13,1-.13,1.58A1,1,0,0,1,67.9,73c-3.11.84-6.22,1.71-9.33,2.57-2.56.71-5.12,1.4-7.67,2.13a3.07,3.07,0,0,1-1.75,0q-8.49-2.39-17-4.72a1,1,0,0,1-.9-1c-.19-2.29-.4-4.59-.6-6.88l-.78-8.67c-.25-2.8-.49-5.6-.74-8.4-.31-3.4-.61-6.79-.92-10.19-.25-2.79-.49-5.59-.74-8.39-.07-.83-.13-1.66-.23-2.48-.06-.5.07-.76.61-.73.14,0,.28,0,.41,0H72l.76,0ZM49.9,35.77v0H36.47c-.52,0-.74.1-.67.7.14,1.39.22,2.8.3,4.2,0,.45.2.61.63.6h2l18.48,0c.49,0,1,0,.87.7-.12,1-.21,2.11-.32,3.16q-.45,4.79-.92,9.56c-.16,1.68-.33,3.35-.49,5a.76.76,0,0,1-.64.77c-1.79.46-3.57,1-5.35,1.44a1.92,1.92,0,0,1-1,0c-1.7-.46-3.39-.93-5.09-1.35a1,1,0,0,1-.87-1c-.07-1-.2-2-.26-3,0-.52-.26-.66-.74-.66-1.11,0-2.22,0-3.32,0-1.6,0-1.58,0-1.42,1.64.2,2.09.38,4.18.5,6.27A1.08,1.08,0,0,0,39.1,65c2.79.73,5.58,1.46,8.34,2.3a7.82,7.82,0,0,0,5,.06c2.8-.91,5.68-1.61,8.52-2.39.37-.1.69-.21.73-.69q.42-4.83.85-9.64.36-4.14.74-8.26.45-4.89.91-9.78c.06-.6-.16-.82-.77-.81Z"/></g></g></svg>