<svg width="240" height="240" viewBox="0 0 240 240" fill="none" xmlns="http://www.w3.org/2000/svg">
<circle cx="120" cy="120" r="120" fill="#232F3E"/>
<path d="M87.4544 112.391C87.4544 114.217 87.6517 115.697 87.9971 116.782C88.3918 117.868 88.8852 119.052 89.576 120.335C89.8227 120.73 89.9214 121.124 89.9214 121.47C89.9214 121.963 89.6253 122.457 88.9839 122.95L85.8755 125.022C85.4314 125.318 84.9873 125.466 84.5926 125.466C84.0992 125.466 83.6058 125.22 83.1124 124.776C82.4216 124.035 81.8296 123.246 81.3361 122.457C80.8427 121.618 80.3493 120.68 79.8066 119.546C75.958 124.085 71.1227 126.354 65.3005 126.354C61.1559 126.354 57.8501 125.17 55.4324 122.802C53.0148 120.434 51.7812 117.276 51.7812 113.329C51.7812 109.135 53.2615 105.73 56.2712 103.165C59.281 100.599 63.2776 99.316 68.3596 99.316C70.0372 99.316 71.7641 99.464 73.5897 99.7107C75.4153 99.9574 77.2902 100.352 79.2639 100.796V97.1943C79.2639 93.4444 78.4744 90.8294 76.9449 89.2998C75.366 87.7703 72.7016 87.0302 68.9024 87.0302C67.1755 87.0302 65.3992 87.2276 63.5736 87.6716C61.748 88.1157 59.9718 88.6584 58.2448 89.3492C57.4554 89.6946 56.8633 89.8919 56.5179 89.9906C56.1725 90.0893 55.9258 90.1386 55.7285 90.1386C55.0377 90.1386 54.6923 89.6452 54.6923 88.6091V86.1914C54.6923 85.402 54.791 84.8099 55.0377 84.4645C55.2844 84.1191 55.7285 83.7737 56.4192 83.4283C58.1462 82.5402 60.2185 81.8001 62.6361 81.208C65.0538 80.5666 67.6195 80.2706 70.3332 80.2706C76.2047 80.2706 80.4974 81.6027 83.2604 84.2671C85.9741 86.9315 87.3557 90.9774 87.3557 96.4049V112.391H87.4544ZM67.4222 119.891C69.0504 119.891 70.728 119.595 72.5042 119.003C74.2805 118.411 75.8594 117.325 77.1916 115.845C77.981 114.908 78.5731 113.871 78.8691 112.687C79.1652 111.503 79.3625 110.072 79.3625 108.395V106.322C77.9317 105.977 76.4021 105.681 74.8232 105.484C73.2443 105.286 71.7148 105.187 70.1852 105.187C66.8794 105.187 64.4617 105.829 62.8335 107.161C61.2053 108.493 60.4158 110.368 60.4158 112.835C60.4158 115.154 61.0079 116.881 62.2414 118.065C63.4256 119.299 65.1525 119.891 67.4222 119.891ZM107.042 125.22C106.154 125.22 105.562 125.072 105.168 124.726C104.773 124.43 104.427 123.739 104.131 122.802L92.5364 84.6619C92.2404 83.675 92.0924 83.0336 92.0924 82.6882C92.0924 81.8988 92.4871 81.4547 93.2765 81.4547H98.1119C99.0494 81.4547 99.6908 81.6027 100.036 81.9481C100.431 82.2442 100.727 82.9349 101.023 83.8724L109.312 116.536L117.009 83.8724C117.256 82.8856 117.552 82.2442 117.947 81.9481C118.341 81.6521 119.032 81.4547 119.92 81.4547H123.868C124.805 81.4547 125.446 81.6027 125.841 81.9481C126.236 82.2442 126.581 82.9349 126.779 83.8724L134.574 116.93L143.11 83.8724C143.406 82.8856 143.752 82.2442 144.097 81.9481C144.492 81.6521 145.133 81.4547 146.021 81.4547H150.61C151.4 81.4547 151.844 81.8494 151.844 82.6882C151.844 82.9349 151.794 83.1816 151.745 83.4777C151.696 83.7737 151.597 84.1684 151.4 84.7112L139.508 122.851C139.212 123.838 138.867 124.48 138.472 124.776C138.078 125.072 137.436 125.269 136.597 125.269H132.354C131.417 125.269 130.775 125.121 130.38 124.776C129.986 124.43 129.64 123.789 129.443 122.802L121.795 90.9774L114.197 122.753C113.95 123.739 113.654 124.381 113.259 124.726C112.865 125.072 112.174 125.22 111.286 125.22H107.042ZM170.445 126.552C167.879 126.552 165.313 126.256 162.846 125.664C160.379 125.072 158.455 124.43 157.172 123.69C156.383 123.246 155.84 122.753 155.643 122.309C155.445 121.865 155.347 121.371 155.347 120.927V118.411C155.347 117.375 155.741 116.881 156.482 116.881C156.778 116.881 157.074 116.93 157.37 117.029C157.666 117.128 158.11 117.325 158.603 117.523C160.281 118.263 162.106 118.855 164.031 119.249C166.004 119.644 167.929 119.842 169.902 119.842C173.011 119.842 175.428 119.299 177.106 118.213C178.783 117.128 179.672 115.549 179.672 113.526C179.672 112.144 179.227 111.01 178.339 110.072C177.451 109.135 175.774 108.296 173.356 107.506L166.202 105.286C162.6 104.151 159.935 102.474 158.307 100.253C156.679 98.0824 155.84 95.6648 155.84 93.0991C155.84 91.0268 156.284 89.2012 157.172 87.6223C158.06 86.0434 159.245 84.6619 160.725 83.5764C162.205 82.4415 163.883 81.6027 165.856 81.0107C167.83 80.4186 169.902 80.1719 172.073 80.1719C173.159 80.1719 174.293 80.2212 175.379 80.3692C176.514 80.5173 177.55 80.7146 178.586 80.912C179.573 81.1587 180.51 81.4054 181.398 81.7014C182.287 81.9975 182.977 82.2935 183.471 82.5896C184.162 82.9843 184.655 83.379 184.951 83.8231C185.247 84.2178 185.395 84.7605 185.395 85.4513V87.7703C185.395 88.8064 185 89.3492 184.26 89.3492C183.865 89.3492 183.224 89.1518 182.385 88.7571C179.573 87.4743 176.415 86.8328 172.912 86.8328C170.1 86.8328 167.879 87.2769 166.35 88.2144C164.82 89.1518 164.031 90.5827 164.031 92.6057C164.031 93.9872 164.524 95.1714 165.511 96.1088C166.498 97.0463 168.323 97.9838 170.938 98.8225L177.945 101.043C181.497 102.178 184.063 103.757 185.592 105.78C187.122 107.803 187.862 110.122 187.862 112.687C187.862 114.809 187.418 116.733 186.579 118.411C185.691 120.088 184.507 121.568 182.977 122.753C181.448 123.986 179.622 124.874 177.501 125.516C175.28 126.206 172.961 126.552 170.445 126.552Z" fill="white"/>
<path fill-rule="evenodd" clip-rule="evenodd" d="M179.77 150.531C163.537 162.52 139.952 168.885 119.673 168.885C91.2528 168.885 65.6451 158.376 46.3037 140.909C44.7742 139.528 46.1557 137.653 47.9813 138.738C68.9016 150.876 94.7066 158.228 121.4 158.228C139.409 158.228 159.195 154.478 177.401 146.781C180.115 145.547 182.434 148.557 179.77 150.531Z" fill="#FF9900"/>
<path fill-rule="evenodd" clip-rule="evenodd" d="M186.528 142.834C184.456 140.17 172.812 141.551 167.532 142.193C165.953 142.39 165.707 141.008 167.137 139.972C176.413 133.459 191.66 135.334 193.436 137.505C195.212 139.726 192.942 154.972 184.259 162.274C182.926 163.409 181.644 162.817 182.236 161.337C184.209 156.452 188.601 145.449 186.528 142.834Z" fill="#FF9900"/>
</svg>
