<svg width="600" height="600" viewBox="0 0 600 600" fill="none" xmlns="http://www.w3.org/2000/svg">
<rect width="600" height="600" rx="60" fill="#1B73E7"/>
<path d="M198.646 275.544C140.236 282.948 89.8038 265.025 86.0018 235.513C82.1998 206 126.468 176.073 184.878 168.669C243.288 161.265 293.721 179.187 297.523 208.7C301.324 238.212 257.056 268.139 198.646 275.544Z" fill="white" fill-opacity="0.8"/>
<path d="M204.911 294.616C234.564 357.074 236.605 417.984 209.47 430.66C182.335 443.336 136.299 402.98 106.647 340.521C76.9939 278.062 74.9529 217.153 102.088 204.477C129.223 191.8 175.259 232.157 204.911 294.616Z" fill="white"/>
<path d="M493.147 280.578C524.313 346.751 526.458 411.283 497.938 424.713C469.418 438.143 421.033 395.386 389.867 329.213C358.701 263.04 356.556 198.508 385.076 185.078C413.595 171.648 461.98 214.404 493.147 280.578Z" fill="white" fill-opacity="0.8"/>
<path d="M411.97 328.732C386.04 397.126 341.124 443.513 311.647 432.339C282.17 421.165 279.294 356.662 305.224 288.267C331.154 219.873 376.07 173.486 405.548 184.66C435.025 195.834 437.9 260.337 411.97 328.732Z" fill="white"/>
</svg>
