<svg width="180" height="180" viewBox="0 0 180 180" fill="none" xmlns="http://www.w3.org/2000/svg">
<circle cx="90" cy="90" r="90" fill="white"/>
<path d="M158.135 55.549C121.745 55.1758 132.058 52.5537 115.677 82.8305C116.155 83.1251 116.644 83.4197 117.122 83.7143C123.09 76.5748 127.724 67.1667 134.669 61.2056C138.037 60.8324 141.475 61.0681 144.215 61.0681C125.542 79.4718 106.859 97.8853 87.807 116.672C80.7423 108.688 70.7182 101.48 66.1944 91.2958C60.8635 80.3262 55.2536 69.4942 49.6437 58.6523C49.026 57.4443 47.7206 55.7356 46.7043 55.7061C37.6468 55.4704 28.5792 55.5686 20 55.5686C43.2068 78.4308 66.4037 101.293 90.1884 124.725C92.3407 122.289 94.9015 119.392 97.4624 116.505C97.7414 116.702 98.0203 116.888 98.2993 117.085C95.2602 123.085 92.2112 129.085 89.2817 134.85C84.1401 128.712 79.3871 123.026 74.6142 117.35C74.2157 117.605 73.8271 117.87 73.4385 118.135C78.4306 127.975 83.4227 137.816 88.7635 148.333C98.2495 132.1 104.148 114.197 115.278 99.1227C130.245 85.6293 143.009 68.7969 159.5 57.3854C159.052 56.7667 158.593 56.1579 158.145 55.5392L158.135 55.549ZM32.4554 61.0878C36.7699 61.7654 42.4097 59.3004 45.2794 62.8162C48.8865 69.7495 52.4039 76.7417 56.4992 84.7946C48.1292 76.5355 40.5464 69.062 32.4554 61.0779V61.0878Z" fill="#202020"/>
</svg>
