<svg width="180" height="180" viewBox="0 0 180 180" fill="none" xmlns="http://www.w3.org/2000/svg">
<path fill-rule="evenodd" clip-rule="evenodd" d="M90 180C139.705 180 180 139.706 180 90C180 40.2944 139.705 0 90 0C40.2949 0 0 40.2944 0 90C0 139.706 40.2949 180 90 180ZM129.637 57.5244C133.674 54.6416 140.285 55.3657 158.135 55.5488L158.822 56.4619L159.5 57.3853C149.229 64.4937 140.402 73.7056 131.588 82.9038C126.252 88.4717 120.922 94.0347 115.279 99.1226C108.6 108.17 103.803 118.236 98.9844 128.349C95.7754 135.086 92.5566 141.843 88.7637 148.333C83.4219 137.816 78.4297 127.976 73.4375 118.135C73.8262 117.87 74.2148 117.605 74.6133 117.35C79.3867 123.026 84.1406 128.712 89.2812 134.85L93.0156 127.497C94.7637 124.057 96.5332 120.571 98.2988 117.084L97.4629 116.505C94.9023 119.393 92.3398 122.29 90.1875 124.725C66.4043 101.293 43.207 78.4307 20 55.5688C21.9355 55.5688 23.8945 55.564 25.873 55.5586C32.6699 55.541 39.6895 55.5234 46.7051 55.7061C47.7207 55.7354 49.0254 57.4443 49.6445 58.6523C55.2539 69.4941 60.8633 80.3262 66.1953 91.2959C69.3398 98.3735 75.1406 104.014 80.7578 109.477C83.2227 111.874 85.6523 114.237 87.8066 116.672C106.859 97.8853 125.541 79.4717 144.215 61.0684C141.475 61.0684 138.037 60.8325 134.67 61.2056C130.377 64.8896 126.967 69.8901 123.58 74.8584C121.486 77.9292 119.4 80.9873 117.121 83.7144L115.678 82.8306C124.023 67.4043 125.441 60.5186 129.637 57.5244ZM37.2305 61.0415C35.5938 61.1812 33.9453 61.3218 32.4551 61.0879L56.5 84.7944L53.5215 78.9272C50.6367 73.2427 47.9824 68.0132 45.2793 62.8164C43.4004 60.5142 40.334 60.7764 37.2305 61.0415Z" fill="#D8DCE4"/>
</svg>
