<svg width="120" height="120" viewBox="0 0 120 120" fill="none" xmlns="http://www.w3.org/2000/svg">
<circle cx="60" cy="60" r="60" fill="white"/>
<path d="M105.424 37.0343C81.1642 36.7855 88.0396 35.0374 77.1187 55.2219C77.4376 55.4183 77.7631 55.6148 78.0819 55.8112C82.061 51.0515 85.1499 44.7794 89.78 40.8054C92.0253 40.5566 94.3171 40.7137 96.1438 40.7137C83.6951 52.9828 71.2398 65.2585 58.5386 77.783C53.8288 72.4603 47.1461 67.6547 44.1303 60.8655C40.5763 53.5524 36.8364 46.3311 33.0965 39.1031C32.6846 38.2979 31.8144 37.1587 31.1368 37.139C25.0985 36.9819 19.0535 37.0474 13.334 37.0474C28.8052 52.2889 44.2698 67.5303 60.1263 83.1516C61.5611 81.5279 63.2683 79.5965 64.9756 77.6717C65.1616 77.8026 65.3476 77.927 65.5336 78.058C63.5075 82.0582 61.4748 86.0584 59.5218 89.9015C56.0941 85.8097 52.9254 82.0189 49.7435 78.2347C49.4778 78.405 49.2187 78.5817 48.9596 78.7585C52.2877 85.3186 55.6158 91.8788 59.1763 98.8906C65.5003 88.0684 69.4329 76.1331 76.853 66.0835C86.8306 57.0878 95.3401 45.8662 106.334 38.2586C106.035 37.8461 105.729 37.4402 105.431 37.0277L105.424 37.0343ZM21.6376 40.7268C24.5139 41.1785 28.2738 39.5352 30.1869 41.8791C32.5916 46.5013 34.9366 51.1628 37.6668 56.5313C32.0868 51.0253 27.0316 46.043 21.6376 40.7203V40.7268Z" fill="#343D46"/>
</svg>
