<?xml version="1.0" encoding="UTF-8"?><svg id="Layer_2" xmlns="http://www.w3.org/2000/svg" viewBox="0 0 200 200"><defs><style>.cls-1{fill:none;}.cls-2{fill:#9794f9;}</style></defs><g id="Layer_1-2"><g><rect class="cls-1" width="200" height="200"/><g id="b"><g id="c"><path class="cls-2" d="m168.64,52.87c-36.52-.38-26.17-3.05-42.61,27.78.48.3.97.6,1.45.9,5.99-7.27,10.64-16.85,17.61-22.92,3.38-.38,6.83-.14,9.58-.14-18.74,18.74-37.49,37.49-56.61,56.62-7.09-8.13-17.15-15.47-21.69-25.84-5.35-11.17-10.98-22.2-16.61-33.24-.62-1.23-1.93-2.97-2.95-3-9.09-.24-18.19-.14-26.8-.14,23.29,23.28,46.57,46.56,70.44,70.42,2.16-2.48,4.73-5.43,7.3-8.37.28.2.56.39.84.59-3.05,6.11-6.11,12.22-9.05,18.09-5.16-6.25-9.93-12.04-14.72-17.82-.4.26-.79.53-1.18.8,5.01,10.02,10.02,20.04,15.38,30.75,9.52-16.53,15.44-34.76,26.61-50.11,15.02-13.74,27.83-30.88,44.38-42.5-.45-.63-.91-1.25-1.36-1.88h0Zm-126.13,5.64c4.33.69,9.99-1.82,12.87,1.76,3.62,7.06,7.15,14.18,11.26,22.38-8.4-8.41-16.01-16.02-24.13-24.15Z"/></g></g></g></g></svg>