<svg width="120" height="120" viewBox="0 0 120 120" fill="none" xmlns="http://www.w3.org/2000/svg">
<rect width="120" height="120" fill="white"/>
<path d="M105.424 38.0343C81.1642 37.7855 88.0396 36.0374 77.1187 56.2219C77.4376 56.4183 77.7631 56.6148 78.0819 56.8112C82.061 52.0515 85.1499 45.7794 89.78 41.8054C92.0253 41.5566 94.3171 41.7137 96.1438 41.7137C83.6951 53.9828 71.2398 66.2585 58.5386 78.783C53.8288 73.4603 47.1461 68.6547 44.1303 61.8655C40.5763 54.5524 36.8364 47.3311 33.0965 40.1031C32.6846 39.2979 31.8144 38.1587 31.1368 38.139C25.0985 37.9819 19.0535 38.0474 13.334 38.0474C28.8052 53.2889 44.2698 68.5303 60.1263 84.1516C61.5611 82.5279 63.2683 80.5965 64.9756 78.6717C65.1616 78.8026 65.3476 78.927 65.5336 79.058C63.5075 83.0582 61.4748 87.0584 59.5218 90.9015C56.0941 86.8097 52.9254 83.0189 49.7435 79.2347C49.4778 79.405 49.2187 79.5817 48.9596 79.7585C52.2877 86.3186 55.6158 92.8788 59.1763 99.8906C65.5003 89.0684 69.4329 77.1331 76.853 67.0835C86.8306 58.0878 95.3401 46.8662 106.334 39.2586C106.035 38.8461 105.729 38.4402 105.431 38.0277L105.424 38.0343ZM21.6376 41.7268C24.5139 42.1785 28.2738 40.5352 30.1869 42.8791C32.5916 47.5013 34.9366 52.1628 37.6668 57.5313C32.0868 52.0253 27.0316 47.043 21.6376 41.7203V41.7268Z" fill="#343D46"/>
</svg>
