<svg width="180" height="180" viewBox="0 0 180 180" fill="none" xmlns="http://www.w3.org/2000/svg">
<circle cx="90" cy="90" r="90" fill="#C0C5CE"/>
<path d="M158.135 55.5475C121.745 55.1743 132.058 52.5522 115.677 82.829C116.155 83.1236 116.644 83.4182 117.122 83.7128C123.09 76.5733 127.724 67.1652 134.669 61.2041C138.037 60.831 141.475 61.0667 144.215 61.0667C125.542 79.4704 106.859 97.8839 87.807 116.671C80.7423 108.686 70.7182 101.478 66.1944 91.2943C60.8635 80.3247 55.2536 69.4927 49.6437 58.6508C49.026 57.4429 47.7206 55.7341 46.7043 55.7046C37.6468 55.4689 28.5792 55.5672 20 55.5672C43.2068 78.4294 66.4037 101.292 90.1884 124.723C92.3407 122.288 94.9015 119.391 97.4624 116.504C97.7414 116.7 98.0203 116.887 98.2993 117.083C95.2602 123.083 92.2112 129.084 89.2817 134.848C84.1401 128.711 79.3871 123.024 74.6142 117.348C74.2157 117.604 73.8271 117.869 73.4385 118.134C78.4306 127.974 83.4227 137.814 88.7635 148.332C98.2495 132.099 104.148 114.196 115.278 99.1213C130.245 85.6278 143.009 68.7954 159.5 57.384C159.052 56.7653 158.593 56.1564 158.145 55.5377L158.135 55.5475ZM32.4554 61.0863C36.7699 61.7639 42.4097 59.299 45.2794 62.8147C48.8865 69.748 52.4039 76.7403 56.4992 84.7931C48.1292 76.534 40.5464 69.0606 32.4554 61.0765V61.0863Z" fill="#343D46"/>
</svg>
